<svg height="512pt" viewBox="-23 0 512 512.00113" width="512pt" xmlns="http://www.w3.org/2000/svg"><path d="m13.445312 217.996094 16.5625 12.15625c-8.917968 19.820312-3.132812 43.90625 15.078126 57.277344l103.867187 76.234374 9.523437 45.152344c5.308594 25.15625 19.050782 47.582032 38.921876 63.707032-6.976563 10.464843-4.539063 24.71875 5.699218 32.234374l3.625 2.660157c10.527344 7.726562 25.394532 5.453125 33.125-5.082031l69.601563-94.832032c3.40625.601563 6.8125.902344 10.191406.902344 18.242187 0 35.617187-8.574219 46.832031-23.855469 13.296875-18.109375 14.992188-41.644531 4.800782-61.28125l69.605468-94.835937c7.730469-10.527344 5.449219-25.394532-5.082031-33.121094l-3.625-2.660156c-10.1875-7.480469-24.550781-5.644532-32.507813 4.324218-20.996093-13.359374-45.84375-19.359374-70.773437-16.941406l-45.933594 4.449219-104.558593-76.742187v-22.511719c0-4.140625-3.355469-7.5-7.5-7.5-4.144532 0-7.5 3.359375-7.5 7.5v135.679687c0 8.511719-6.921876 15.445313-15.441407 15.445313-8.515625 0-15.445312-6.929688-15.445312-15.445313 0-6.457031 0-182.464844 0-190.464844 0-8.515624 6.929687-15.445312 15.441406-15.445312 8.515625 0 15.445313 6.929688 15.445313 15.445312v19.789063c0 4.140625 3.355468 7.5 7.5 7.5 4.144531 0 7.5-3.359375 7.5-7.5v-19.792969c0-16.785156-13.65625-30.441406-30.441407-30.441406-16.785156 0-30.445312 13.65625-30.445312 30.441406v78.820313l-15.765625-11.574219c-14.644532-10.746094-35.324219-7.570312-46.070313 7.070312l-49.296875 67.167969c-10.753906 14.648438-7.582031 35.316407 7.066406 46.070313zm340.9375 157.679687c-8.285156 11.292969-21.101562 17.648438-34.574218 17.71875l41.113281-56.019531c3.972656 12.878906 1.75 27.007812-6.539063 38.300781zm56.761719-169.070312c2.828125-3.851563 8.3125-4.683594 12.152344-1.863281l3.628906 2.660156c3.835938 2.820312 4.691407 8.300781 1.863281 12.15625l-100.515624 136.953125-28.027344 38.1875s0 0-.003906 0l-72.488282 98.761719c-2.824218 3.847656-8.308594 4.6875-12.15625 1.863281l-3.625-2.660157c-3.863281-2.835937-4.703125-8.289062-1.863281-12.15625.722656-.984374 99.792969-135.964843 100.515625-136.949218zm-127.59375-7.109375 46.789063-4.53125c21.234375-2.054688 42.398437 2.929687 60.386718 14.105468l-184.464843 251.332032c-16.886719-13.929688-28.5625-33.148438-33.105469-54.683594l-9.144531-43.355469zm-102.085937 65.679687c-2.226563-3.492187-6.867188-4.515625-10.355469-2.285156-6.921875 4.417969-14.929687 6.753906-23.152344 6.753906-23.769531 0-43.109375-19.339843-43.109375-43.109375 0-11.699218 4.65625-22.589844 12.667969-30.542968v24.917968c0 16.78125 13.652344 30.441406 30.441406 30.441406 16.785157 0 30.441407-13.652343 30.441407-30.441406v-24.917968c8.011718 7.953124 12.667968 18.84375 12.667968 30.542968 0 4.296875-.632812 8.550782-1.886718 12.636719-1.210938 3.960937 1.015624 8.15625 4.976562 9.367187 3.957031 1.214844 8.15625-1.015624 9.367188-4.976562 1.6875-5.511719 2.542968-11.242188 2.542968-17.027344 0-20.386718-10.492187-38.941406-27.667968-49.488281v-50.699219l91.136718 66.890625-114.632812 156.183594-100.9375-74.085937c-13.75-10.089844-17.109375-29.144532-7.964844-43.277344.003906-.003906.003906-.003906.003906-.007813.902344-1.390625-3.15625 4.195313 71.507813-97.53125v42.527344c-17.171875 10.546875-27.664063 29.101563-27.664063 49.488281 0 32.039063 26.066406 58.105469 58.109375 58.105469 11.089844 0 21.886719-3.148437 31.222657-9.109375 3.492187-2.226562 4.515624-6.863281 2.285156-10.355469zm-162.996094-84.375 49.300781-67.167969c5.839844-7.953124 17.144531-9.691406 25.101563-3.851562l15.722656 11.539062-70.550781 96.125-15.722657-11.542968c-7.980468-5.859375-9.710937-17.121094-3.851562-25.101563zm0 0"/><path d="m435.851562 435.472656c2.453126-3.339844 1.734376-8.035156-1.605468-10.484375l-40.980469-30.078125c-3.339844-2.453125-8.035156-1.730468-10.484375 1.609375-2.449219 3.335938-1.730469 8.03125 1.609375 10.480469l40.980469 30.082031c3.339844 2.449219 8.035156 1.726563 10.480468-1.609375zm0 0"/><path d="m400.648438 358.558594c-.714844 4.082031 2.015624 7.964844 6.09375 8.683594l50.074218 8.761718c4.078125.714844 7.964844-2.011718 8.679688-6.09375.714844-4.078125-2.015625-7.964844-6.09375-8.679687l-50.074219-8.765625c-4.078125-.714844-7.964844 2.015625-8.679687 6.09375zm0 0"/><path d="m401.15625 310.789062c-3.535156 2.15625-4.652344 6.769532-2.496094 10.304688 2.160156 3.542969 6.777344 4.652344 10.304688 2.5l43.402344-26.464844c3.539062-2.160156 4.65625-6.773437 2.5-10.308594-2.15625-3.539062-6.773438-4.65625-10.308594-2.5zm0 0"/><path d="m382.195312 483.40625c3.679688-1.90625 5.113282-6.429688 3.210938-10.109375l-23.371094-45.140625c-1.90625-3.679688-6.429687-5.117188-10.109375-3.214844-3.679687 1.90625-5.117187 6.429688-3.210937 10.109375l23.371094 45.144531c1.90625 3.675782 6.429687 5.113282 10.109374 3.210938zm0 0"/><path d="m299.738281 498.175781c4.027344.996094 8.089844-1.460937 9.085938-5.476562l12.234375-49.339844c1-4.019531-1.453125-8.085937-5.472656-9.082031-4.023438-1-8.089844 1.453125-9.085938 5.472656l-12.234375 49.339844c-.996094 4.019531 1.453125 8.085937 5.472656 9.085937zm0 0"/></svg>